<svg id="Layer_1" data-name="Layer 1" xmlns="http://www.w3.org/2000/svg" viewBox="0 0 233.76 65"><defs><style>.cls-1{fill:#ffc50a;}.cls-2{fill:#0083ca;}.cls-3{fill:#fff;}</style></defs><title>coursecheck</title><path class="cls-1" d="M5.7,51.4A31.47,31.47,0,0,1,0,32.66,31.53,31.53,0,0,1,9.49,9.41,31.9,31.9,0,0,1,32.88,0Q46.56,0,55.71,9.24a27.65,27.65,0,0,1,3.44,4.25l-8.7,5L42,23.4C28.33,8.21,1.21,25.82,5.7,51.4Z"/><path class="cls-2" d="M59.6,48.08a31.06,31.06,0,0,1-6.26,8.68C42.79,66.93,24.17,68.91,15.19,55.69c-5.94-8.75-6.09-21.58,3.55-28.8a16.55,16.55,0,0,0-1,5.77,14,14,0,0,0,3.76,10,12.5,12.5,0,0,0,9.51,4,12.49,12.49,0,0,0,9.3-3.49,13.12,13.12,0,0,0,2.88-4.53l7.23,4.17,9.15,5.28Z"/><path class="cls-3" d="M67.17,38a8.58,8.58,0,0,1-6.51,2.45c-5.31,0-9.46-3.5-9.46-9.3s4.21-9.3,9.46-9.3c3.71,0,5.72,1.54,6.19,2l-1.3,3.5a6.91,6.91,0,0,0-4.66-1.88,5.18,5.18,0,0,0-5.41,5.56,5.22,5.22,0,0,0,5.41,5.54,6.71,6.71,0,0,0,4.87-1.9Z"/><path class="cls-3" d="M77.88,40.44c-5.35,0-9.56-3.47-9.56-9.3s4.21-9.33,9.56-9.33,9.57,3.5,9.57,9.33S83.24,40.44,77.88,40.44Zm0-15c-3,0-5.28,2.17-5.28,5.62s2.28,5.64,5.28,5.64,5.28-2.19,5.28-5.64S80.89,25.42,77.88,25.42Z"/><path class="cls-3" d="M105.46,32.6c0,2.54-.45,4.29-1.73,5.68a7.64,7.64,0,0,1-5.82,2.14,7.74,7.74,0,0,1-5.86-2.14c-1.25-1.39-1.7-3.14-1.7-5.68V22.1h4.26V32.6a4.58,4.58,0,0,0,.71,3,3.54,3.54,0,0,0,5.17,0,4.58,4.58,0,0,0,.71-3V22.1h4.26Z"/><path class="cls-3" d="M123.54,40.13h-4.91l-3.79-6.9h-1.33v6.9h-4.23v-18h6.48a7.83,7.83,0,0,1,4.75,1.28,5,5,0,0,1,2,4.13A5,5,0,0,1,119,32.68Zm-6.22-14.29a3.42,3.42,0,0,0-2.17-.48h-1.67V30h1.67a3.42,3.42,0,0,0,2.17-.5,2,2,0,0,0,.92-1.83A2,2,0,0,0,117.32,25.84Z"/><path class="cls-3" d="M135.67,39a7.7,7.7,0,0,1-4.88,1.48,9.78,9.78,0,0,1-6.41-2.71l2.09-3.09a7.45,7.45,0,0,0,4.71,2.28c1.36,0,2.4-.66,2.4-1.86s-1.33-1.7-2.11-2-2.15-.75-2.75-1a7,7,0,0,1-2.14-1.31,4.44,4.44,0,0,1-1.41-3.48,5.05,5.05,0,0,1,1.88-3.94,7.32,7.32,0,0,1,4.76-1.44,8.87,8.87,0,0,1,5.72,2.22l-1.8,2.95a6.27,6.27,0,0,0-4-1.83c-1.36,0-2.35.53-2.35,1.62s1,1.52,1.83,1.83,2.12.79,2.69,1a7.36,7.36,0,0,1,2.51,1.47,4.68,4.68,0,0,1,1.41,3.47A5.46,5.46,0,0,1,135.67,39Z"/><path class="cls-3" d="M152.61,40.13H140.69v-18h11.68v3.37H144.9v3.68H152v3.38H144.9v4.18h7.71Z"/><path class="cls-3" d="M170.64,37.71a8.39,8.39,0,0,1-6.49,2.73c-5.09,0-8.85-3.72-8.85-9.06a9,9,0,0,1,15.21-6.51l-.89,1a7.13,7.13,0,0,0-5.47-2.31c-4.32,0-7.37,3.18-7.37,7.76s3.05,7.81,7.37,7.81a7.36,7.36,0,0,0,5.6-2.32Z"/><path class="cls-3" d="M187.18,40.13h-1.37V31.35H175v8.78h-1.38V22.58H175v7.53h10.86V22.58h1.37Z"/><path class="cls-3" d="M201.23,40.13h-9.72V22.58h9.54v1.24h-8.16v6.36h7.71v1.25h-7.71v7.45h8.34Z"/><path class="cls-3" d="M218.87,37.71a8.39,8.39,0,0,1-6.49,2.73c-5.09,0-8.85-3.72-8.85-9.06a9,9,0,0,1,15.21-6.51l-.89,1a7.15,7.15,0,0,0-5.47-2.31c-4.33,0-7.38,3.18-7.38,7.76s3.05,7.81,7.38,7.81a7.38,7.38,0,0,0,5.6-2.32Z"/><path class="cls-3" d="M233.76,40.13H232l-6.8-9.79-2.06,2v7.76H221.8V22.58h1.37v8.21l8.3-8.21h1.78l-7.08,6.86Z"/><path class="cls-3" d="M126.46,50.43l-.62,2h-1.35l2.3-7.16h1.66l2.33,7.16h-1.4l-.65-2Zm2-1-.57-1.76c-.13-.44-.25-.93-.36-1.34h0c-.1.41-.21.91-.34,1.34l-.55,1.76Z"/><path class="cls-3" d="M132.35,44.9h1.3v7.56h-1.3Z"/><path class="cls-3" d="M135.75,44.9h1.31v7.56h-1.31Z"/><path class="cls-3" d="M142.85,47.29l.93,2.77c.1.32.22.71.3,1h0c.07-.29.17-.68.27-1l.81-2.76h1.39l-1.29,3.52c-.72,1.94-1.19,2.8-1.8,3.33a2.7,2.7,0,0,1-1.37.66l-.3-1.1a2.16,2.16,0,0,0,.76-.36,2.26,2.26,0,0,0,.72-.82.59.59,0,0,0,.07-.23.65.65,0,0,0-.06-.25l-1.9-4.75Z"/><path class="cls-3" d="M150.14,52.58a2.51,2.51,0,0,1-2.6-2.67,2.56,2.56,0,0,1,2.68-2.74,2.48,2.48,0,0,1,2.57,2.66,2.56,2.56,0,0,1-2.64,2.75Zm0-.95c.74,0,1.26-.72,1.26-1.77,0-.81-.36-1.75-1.25-1.75s-1.3.91-1.3,1.77.5,1.75,1.28,1.75Z"/><path class="cls-3" d="M159.17,50.91c0,.62,0,1.13.05,1.55h-1.14l-.07-.77h0a1.89,1.89,0,0,1-1.67.89c-.93,0-1.79-.57-1.79-2.25v-3h1.31V50.1c0,.86.27,1.42,1,1.42a1.08,1.08,0,0,0,1-.71,1,1,0,0,0,.08-.4V47.29h1.3Z"/><path class="cls-3" d="M164.13,48.83c0-.6,0-1.1,0-1.54h1.13l.07.77h0a1.91,1.91,0,0,1,1.66-.89c.9,0,1.84.58,1.84,2.22v3.07h-1.31V49.54c0-.75-.28-1.31-1-1.31a1.09,1.09,0,0,0-1,.77,1.22,1.22,0,0,0-.06.41v3.05h-1.31Z"/><path class="cls-3" d="M171.81,50.24a1.4,1.4,0,0,0,1.59,1.34,4.09,4.09,0,0,0,1.43-.24l.2.9a4.72,4.72,0,0,1-1.81.33A2.45,2.45,0,0,1,170.55,50a2.56,2.56,0,0,1,2.53-2.78,2.25,2.25,0,0,1,2.23,2.52,3.45,3.45,0,0,1,0,.55Zm2.27-.91A1.11,1.11,0,0,0,173,48.06a1.27,1.27,0,0,0-1.2,1.27Z"/><path class="cls-3" d="M178,50.24a1.41,1.41,0,0,0,1.6,1.34,4.09,4.09,0,0,0,1.43-.24l.19.9a4.63,4.63,0,0,1-1.8.33A2.45,2.45,0,0,1,176.71,50a2.56,2.56,0,0,1,2.53-2.78,2.25,2.25,0,0,1,2.23,2.52,3.45,3.45,0,0,1,0,.55Zm2.28-.91a1.12,1.12,0,0,0-1.08-1.27,1.28,1.28,0,0,0-1.2,1.27Z"/><path class="cls-3" d="M188,44.9V51c0,.53,0,1.1,0,1.45h-1.16l-.06-.82h0a1.83,1.83,0,0,1-1.67.94,2.37,2.37,0,0,1-2.23-2.65,2.46,2.46,0,0,1,2.32-2.76,1.67,1.67,0,0,1,1.46.67h0V44.9Zm-1.31,4.54a2.16,2.16,0,0,0,0-.35,1.15,1.15,0,0,0-1.13-.91c-.84,0-1.31.74-1.31,1.7s.47,1.65,1.3,1.65a1.17,1.17,0,0,0,1.13-.93,1.53,1.53,0,0,0,0-.38Z"/><path class="cls-3" d="M194.41,46v1.33h1.24v1h-1.24v2.28c0,.64.17,1,.67,1a1.82,1.82,0,0,0,.51-.05l0,1a3,3,0,0,1-.94.14,1.48,1.48,0,0,1-1.13-.43,2,2,0,0,1-.42-1.45V48.26h-.73v-1h.73v-1Z"/><path class="cls-3" d="M199.51,52.58a2.5,2.5,0,0,1-2.59-2.67,2.56,2.56,0,0,1,2.68-2.74,2.48,2.48,0,0,1,2.57,2.66,2.56,2.56,0,0,1-2.64,2.75Zm.05-.95c.74,0,1.26-.72,1.26-1.77,0-.81-.36-1.75-1.25-1.75s-1.3.91-1.3,1.77.5,1.75,1.28,1.75Z"/><path class="cls-3" d="M208.09,49.56h0c.12-.2.27-.42.4-.61l1.27-1.66h1.57l-1.93,2.11,2.19,3.06H210l-1.49-2.28-.44.52v1.76h-1.3V44.9h1.3Z"/><path class="cls-3" d="M213,48.83c0-.6,0-1.1,0-1.54h1.13l.07.77h0a1.89,1.89,0,0,1,1.66-.89c.9,0,1.83.58,1.83,2.22v3.07h-1.3V49.54c0-.75-.28-1.31-1-1.31a1.09,1.09,0,0,0-1,.77,1.21,1.21,0,0,0-.07.41v3.05H213Z"/><path class="cls-3" d="M222,52.58a2.5,2.5,0,0,1-2.59-2.67,2.55,2.55,0,0,1,2.68-2.74,2.48,2.48,0,0,1,2.57,2.66A2.56,2.56,0,0,1,222,52.58Zm0-.95c.75,0,1.27-.72,1.27-1.77,0-.81-.36-1.75-1.25-1.75s-1.3.91-1.3,1.77.5,1.75,1.27,1.75Z"/><path class="cls-3" d="M227.13,47.29l.53,2.34c.13.56.24,1.12.34,1.68h0c.11-.55.28-1.13.41-1.66l.68-2.36h1.07l.64,2.29c.16.61.3,1.17.42,1.73h0c.08-.56.2-1.12.34-1.73l.57-2.29h1.29l-1.63,5.17h-1.21l-.61-2.1a16.2,16.2,0,0,1-.4-1.66h0a14.09,14.09,0,0,1-.39,1.66l-.66,2.1h-1.22l-1.53-5.17Z"/></svg>